999
dxfrw 0.6.3
  0
SECTION
  2
HEADER
  9
$ACADVER
  1
AC1021
  9
$DWGCODEPAGE
  3
ANSI_1252
  9
$INSBASE
 10
0
 20
0
 30
0
  9
$EXTMIN
 10
31.94330121804842
 20
81.68339999999999
 30
0
  9
$EXTMAX
 10
264.426
 20
204.99
 30
0
  9
$LIMMIN
 10
0
 20
0
  9
$LIMMAX
 10
420
 20
297
  9
$ORTHOMODE
 70
    0
  9
$REGENMODE
 70
    1
  9
$FILLMODE
 70
    1
  9
$QTEXTMODE
 70
    0
  9
$MIRRTEXT
 70
    0
  9
$LTSCALE
 40
1
  9
$ATTMODE
 70
    0
  9
$TEXTSIZE
 40
2.5
  9
$TRACEWID
 40
15.68
  9
$TEXTSTYLE
  7
STANDARD
  9
$CLAYER
  8
0
  9
$CELTYPE
  6
BYLAYER
  9
$CECOLOR
 62
  256
  9
$CELTSCALE
 40
1
  9
$DISPSILH
 70
    0
  9
$DIMSCALE
 40
1
  9
$DIMASZ
 40
2.5
  9
$DIMEXO
 40
0.625
  9
$DIMDLI
 40
3.75
  9
$DIMRND
 40
0
  9
$DIMDLE
 40
0
  9
$DIMEXE
 40
1.25
  9
$DIMTP
 40
0
  9
$DIMTM
 40
0
  9
$DIMTXT
 40
2.5
  9
$DIMCEN
 40
2.5
  9
$DIMTSZ
 40
0
  9
$DIMTOL
 70
    0
  9
$DIMLIM
 70
    0
  9
$DIMTIH
 70
    0
  9
$DIMTOH
 70
    0
  9
$DIMSE1
 70
    0
  9
$DIMSE2
 70
    0
  9
$DIMTAD
 70
    1
  9
$DIMZIN
 70
    8
  9
$DIMBLK
  1

  9
$DIMASO
 70
    1
  9
$DIMSHO
 70
    1
  9
$DIMPOST
  1

  9
$DIMAPOST
  1

  9
$DIMALT
 70
    0
  9
$DIMALTD
 70
    3
  9
$DIMALTF
 40
0.03937
  9
$DIMLFAC
 40
1
  9
$DIMTOFL
 70
    1
  9
$DIMTVP
 40
0
  9
$DIMTIX
 70
    0
  9
$DIMSOXD
 70
    0
  9
$DIMSAH
 70
    0
  9
$DIMBLK1
  1

  9
$DIMBLK2
  1

  9
$DIMSTYLE
  2
STANDARD
  9
$DIMCLRD
 70
    0
  9
$DIMCLRE
 70
    0
  9
$DIMCLRT
 70
    0
  9
$DIMTFAC
 40
1
  9
$DIMGAP
 40
0.625
  9
$DIMJUST
 70
    0
  9
$DIMSD1
 70
    0
  9
$DIMSD2
 70
    0
  9
$DIMTOLJ
 70
    0
  9
$DIMTZIN
 70
    8
  9
$DIMALTZ
 70
    0
  9
$DIMALTTZ
 70
    0
  9
$DIMUPT
 70
    0
  9
$DIMDEC
 70
    2
  9
$DIMTDEC
 70
    2
  9
$DIMALTU
 70
    2
  9
$DIMALTTD
 70
    3
  9
$DIMTXSTY
  7
STANDARD
  9
$DIMAUNIT
 70
    0
  9
$DIMADEC
 70
    0
  9
$DIMALTRND
 40
0
  9
$DIMAZIN
 70
    0
  9
$DIMDSEP
 70
   44
  9
$DIMATFIT
 70
    3
  9
$DIMFRAC
 70
    0
  9
$DIMLDRBLK
  1
STANDARD
  9
$DIMLUNIT
 70
    2
  9
$DIMLWD
 70
   -2
  9
$DIMLWE
 70
   -2
  9
$DIMTMOVE
 70
    0
  9
$DIMFXL
 40
1
  9
$DIMFXLON
 70
    0
  9
$DIMJOGANG
 40
0.7854
  9
$DIMTFILL
 70
    0
  9
$DIMTFILLCLR
 70
    0
  9
$DIMARCSYM
 70
    0
  9
$DIMLTYPE
  6

  9
$DIMLTEX1
  6

  9
$DIMLTEX2
  6

  9
$LUNITS
 70
    2
  9
$LUPREC
 70
    4
  9
$SKETCHINC
 40
1
  9
$FILLETRAD
 40
0
  9
$AUNITS
 70
    0
  9
$AUPREC
 70
    2
  9
$MENU
  1
.
  9
$ELEVATION
 40
0
  9
$PELEVATION
 40
0
  9
$THICKNESS
 40
0
  9
$LIMCHECK
 70
    0
  9
$CHAMFERA
 40
0
  9
$CHAMFERB
 40
0
  9
$CHAMFERC
 40
0
  9
$CHAMFERD
 40
0
  9
$SKPOLY
 70
    0
  9
$USRTIMER
 70
    1
  9
$ANGBASE
 50
0
  9
$ANGDIR
 70
    0
  9
$PDMODE
 70
   34
  9
$PDSIZE
 40
0
  9
$PLINEWID
 40
0
  9
$SPLFRAME
 70
    0
  9
$SPLINETYPE
 70
    2
  9
$SPLINESEGS
 70
    8
  9
$HANDSEED
  5
20000
  9
$SURFTAB1
 70
    6
  9
$SURFTAB2
 70
    6
  9
$SURFTYPE
 70
    6
  9
$SURFU
 70
    6
  9
$SURFV
 70
    6
  9
$UCSBASE
  2

  9
$UCSNAME
  2

  9
$UCSORG
 10
0
 20
0
 30
0
  9
$UCSXDIR
 10
1
 20
0
 30
0
  9
$UCSYDIR
 10
0
 20
1
 30
0
  9
$UCSORTHOREF
  2

  9
$UCSORTHOVIEW
 70
    0
  9
$UCSORGTOP
 10
0
 20
0
 30
0
  9
$UCSORGBOTTOM
 10
0
 20
0
 30
0
  9
$UCSORGLEFT
 10
0
 20
0
 30
0
  9
$UCSORGRIGHT
 10
0
 20
0
 30
0
  9
$UCSORGFRONT
 10
0
 20
0
 30
0
  9
$UCSORGBACK
 10
0
 20
0
 30
0
  9
$PUCSBASE
  2

  9
$PUCSNAME
  2

  9
$PUCSORG
 10
0
 20
0
 30
0
  9
$PUCSXDIR
 10
1
 20
0
 30
0
  9
$PUCSYDIR
 10
0
 20
1
 30
0
  9
$PUCSORTHOREF
  2

  9
$PUCSORTHOVIEW
 70
    0
  9
$PUCSORGTOP
 10
0
 20
0
 30
0
  9
$PUCSORGBOTTOM
 10
0
 20
0
 30
0
  9
$PUCSORGLEFT
 10
0
 20
0
 30
0
  9
$PUCSORGRIGHT
 10
0
 20
0
 30
0
  9
$PUCSORGFRONT
 10
0
 20
0
 30
0
  9
$PUCSORGBACK
 10
0
 20
0
 30
0
  9
$USERI1
 70
    0
  9
$USERI2
 70
    0
  9
$USERI3
 70
    0
  9
$USERI4
 70
    0
  9
$USERI5
 70
    0
  9
$USERR1
 40
0
  9
$USERR2
 40
0
  9
$USERR3
 40
0
  9
$USERR4
 40
0
  9
$USERR5
 40
0
  9
$WORLDVIEW
 70
    1
  9
$SHADEDGE
 70
    3
  9
$SHADEDIF
 70
   70
  9
$TILEMODE
 70
    1
  9
$MAXACTVP
 70
   64
  9
$PINSBASE
 10
-27.14828422305141
 20
24.12252605739064
 30
0
  9
$PLIMCHECK
 70
    0
  9
$PEXTMIN
 10
0
 20
0
 30
0
  9
$PEXTMAX
 10
50
 20
50
 30
50
  9
$GRIDMODE
 70
    0
  9
$SNAPSTYLE
 70
    0
  9
$PLIMMIN
 10
0
 20
0
  9
$PLIMMAX
 10
210
 20
297
  9
$UNITMODE
 70
    0
  9
$VISRETAIN
 70
    1
  9
$PLINEGEN
 70
    0
  9
$PSLTSCALE
 70
    1
  9
$TREEDEPTH
 70
 3020
  9
$CMLSTYLE
  2
STANDARD
  9
$CMLJUST
 70
    0
  9
$CMLSCALE
 40
20
  9
$PROXYGRAPHICS
 70
    1
  9
$MEASUREMENT
 70
    1
  9
$CELWEIGHT
370
   -1
  9
$ENDCAPS
280
    0
  9
$JOINSTYLE
280
    0
  9
$LWDISPLAY
290
    0
  9
$INSUNITS
 70
    4
  9
$HYPERLINKBASE
  1

  9
$STYLESHEET
  1

  9
$XEDIT
290
    1
  9
$CEPSNTYPE
380
    0
  9
$PSTYLEMODE
290
    1
  9
$EXTNAMES
290
    1
  9
$PSVPSCALE
 40
1
  9
$OLESTARTUP
290
    0
  9
$SORTENTS
280
  127
  9
$INDEXCTL
280
    0
  9
$HIDETEXT
280
    1
  9
$XCLIPFRAME
290
    0
  9
$HALOGAP
280
    0
  9
$OBSCOLOR
 70
  257
  9
$OBSLTYPE
280
    0
  9
$INTERSECTIONDISPLAY
280
    0
  9
$INTERSECTIONCOLOR
 70
  257
  9
$DIMASSOC
280
    1
  9
$PROJECTNAME
  1

  9
$CAMERADISPLAY
290
    0
  9
$LENSLENGTH
 40
50
  9
$CAMERAHEIGHT
 40
0
  9
$STEPSPERSEC
 40
2
  9
$STEPSIZE
 40
50
  9
$3DDWFPREC
 40
2
  9
$PSOLWIDTH
 40
5
  9
$PSOLHEIGHT
 40
80
  9
$LOFTANG1
 40
1.570796326794897
  9
$LOFTANG2
 40
1.570796326794897
  9
$LOFTMAG1
 40
0
  9
$LOFTMAG2
 40
0
  9
$LOFTPARAM
 70
    7
  9
$LOFTNORMALS
280
    1
  9
$LATITUDE
 40
1
  9
$LONGITUDE
 40
1
  9
$NORTHDIRECTION
 40
0
  9
$TIMEZONE
 70
-8000
  9
$LIGHTGLYPHDISPLAY
280
    1
  9
$TILEMODELIGHTSYNCH
280
    1
  9
$SOLIDHIST
280
    1
  9
$SHOWHIST
280
    1
  9
$DWFFRAME
280
    2
  9
$DGNFRAME
280
    0
  9
$REALWORLDSCALE
290
    1
  9
$INTERFERECOLOR
 62
    1
  9
$CSHADOW
280
    0
  9
$SHADOWPLANELOCATION
 40
0
  0
ENDSEC
  0
SECTION
  2
CLASSES
  0
ENDSEC
  0
SECTION
  2
TABLES
  0
TABLE
  2
VPORT
  5
8
330
0
100
AcDbSymbolTable
 70
    1
  0
VPORT
  5
31
330
2
100
AcDbSymbolTableRecord
100
AcDbViewportTableRecord
  2
*ACTIVE
 70
    0
 10
0
 20
0
 11
1
 21
1
 12
205.9668341482978
 22
138.378408434694
 13
0
 23
0
 14
10
 24
10
 15
10
 25
10
 16
0
 26
0
 36
1
 17
0
 27
0
 37
0
 40
284.9385736662979
 41
1.787765293383271
 42
50
 43
0
 44
0
 50
0
 51
0
 71
    0
 72
  100
 73
    1
 74
    3
 75
    0
 76
    0
 77
    0
 78
    0
281
    0
 65
    1
110
0
120
0
130
0
111
1
121
0
131
0
112
0
122
1
132
0
 79
    0
146
0
348
10020
 60
    7
 61
    5
292
1
282
    1
141
0
142
0
 63
  250
421
3358443
  0
ENDTAB
  0
TABLE
  2
LTYPE
  5
5
330
0
100
AcDbSymbolTable
 70
    4
  0
LTYPE
  5
14
330
5
100
AcDbSymbolTableRecord
100
AcDbLinetypeTableRecord
  2
ByBlock
 70
    0
  3

 72
   65
 73
    0
 40
0
  0
LTYPE
  5
15
330
5
100
AcDbSymbolTableRecord
100
AcDbLinetypeTableRecord
  2
ByLayer
 70
    0
  3

 72
   65
 73
    0
 40
0
  0
LTYPE
  5
16
330
5
100
AcDbSymbolTableRecord
100
AcDbLinetypeTableRecord
  2
Continuous
 70
    0
  3
Solid line
 72
   65
 73
    0
 40
0
  0
LTYPE
  5
32
330
5
100
AcDbSymbolTableRecord
100
AcDbLinetypeTableRecord
  2
DOT
 70
    0
  3
Dot . . . . . . . . . . . . . . . . . . . . . .
 72
   65
 73
    2
 40
6.35
 49
0
 74
    0
 49
-6.35
 74
    0
  0
LTYPE
  5
33
330
5
100
AcDbSymbolTableRecord
100
AcDbLinetypeTableRecord
  2
DOTTINY
 70
    0
  3
Dot (.15x) .....................................
 72
   65
 73
    2
 40
0.9525
 49
0
 74
    0
 49
-0.9525
 74
    0
  0
LTYPE
  5
34
330
5
100
AcDbSymbolTableRecord
100
AcDbLinetypeTableRecord
  2
DOT2
 70
    0
  3
Dot (.5x) .....................................
 72
   65
 73
    2
 40
3.175
 49
0
 74
    0
 49
-3.175
 74
    0
  0
LTYPE
  5
35
330
5
100
AcDbSymbolTableRecord
100
AcDbLinetypeTableRecord
  2
DOTX2
 70
    0
  3
Dot (2x) .  .  .  .  .  .  .  .  .  .  .  .  .
 72
   65
 73
    2
 40
12.7
 49
0
 74
    0
 49
-12.7
 74
    0
  0
LTYPE
  5
36
330
5
100
AcDbSymbolTableRecord
100
AcDbLinetypeTableRecord
  2
DASHED
 70
    0
  3
Dashed _ _ _ _ _ _ _ _ _ _ _ _ _ _ _ _ _
 72
   65
 73
    2
 40
19.05
 49
12.7
 74
    0
 49
-6.35
 74
    0
  0
LTYPE
  5
37
330
5
100
AcDbSymbolTableRecord
100
AcDbLinetypeTableRecord
  2
DASHEDTINY
 70
    0
  3
Dashed (.15x) _ _ _ _ _ _ _ _ _ _ _ _ _ _ _ _ _
 72
   65
 73
    2
 40
2.8575
 49
1.905
 74
    0
 49
-0.9525
 74
    0
  0
LTYPE
  5
38
330
5
100
AcDbSymbolTableRecord
100
AcDbLinetypeTableRecord
  2
DASHED2
 70
    0
  3
Dashed (.5x) _ _ _ _ _ _ _ _ _ _ _ _ _ _ _ _ _
 72
   65
 73
    2
 40
9.524999999999999
 49
6.35
 74
    0
 49
-3.175
 74
    0
  0
LTYPE
  5
39
330
5
100
AcDbSymbolTableRecord
100
AcDbLinetypeTableRecord
  2
DASHEDX2
 70
    0
  3
Dashed (2x) ____  ____  ____  ____  ____  ___
 72
   65
 73
    2
 40
38.09999999999999
 49
25.4
 74
    0
 49
-12.7
 74
    0
  0
LTYPE
  5
3A
330
5
100
AcDbSymbolTableRecord
100
AcDbLinetypeTableRecord
  2
DASHDOT
 70
    0
  3
Dash dot __ . __ . __ . __ . __ . __ . __ . __
 72
   65
 73
    4
 40
25.4
 49
12.7
 74
    0
 49
-6.35
 74
    0
 49
0
 74
    0
 49
-6.35
 74
    0
  0
LTYPE
  5
3B
330
5
100
AcDbSymbolTableRecord
100
AcDbLinetypeTableRecord
  2
DASHDOTTINY
 70
    0
  3
Dash dot (.15x) _._._._._._._._._._._._._._._.
 72
   65
 73
    4
 40
3.81
 49
1.905
 74
    0
 49
-0.9525
 74
    0
 49
0
 74
    0
 49
-0.9525
 74
    0
  0
LTYPE
  5
3C
330
5
100
AcDbSymbolTableRecord
100
AcDbLinetypeTableRecord
  2
DASHDOT2
 70
    0
  3
Dash dot (.5x) _._._._._._._._._._._._._._._.
 72
   65
 73
    4
 40
12.7
 49
6.35
 74
    0
 49
-3.175
 74
    0
 49
0
 74
    0
 49
-3.175
 74
    0
  0
LTYPE
  5
3D
330
5
100
AcDbSymbolTableRecord
100
AcDbLinetypeTableRecord
  2
DASHDOTX2
 70
    0
  3
Dash dot (2x) ____  .  ____  .  ____  .  ___
 72
   65
 73
    4
 40
50.8
 49
25.4
 74
    0
 49
-12.7
 74
    0
 49
0
 74
    0
 49
-12.7
 74
    0
  0
LTYPE
  5
3E
330
5
100
AcDbSymbolTableRecord
100
AcDbLinetypeTableRecord
  2
DIVIDE
 70
    0
  3
Divide ____ . . ____ . . ____ . . ____ . . ____
 72
   65
 73
    6
 40
31.75
 49
12.7
 74
    0
 49
-6.35
 74
    0
 49
0
 74
    0
 49
-6.35
 74
    0
 49
0
 74
    0
 49
-6.35
 74
    0
  0
LTYPE
  5
3F
330
5
100
AcDbSymbolTableRecord
100
AcDbLinetypeTableRecord
  2
DIVIDETINY
 70
    0
  3
Divide (.15x) __..__..__..__..__..__..__..__.._
 72
   65
 73
    6
 40
4.7625
 49
1.905
 74
    0
 49
-0.9525
 74
    0
 49
0
 74
    0
 49
-0.9525
 74
    0
 49
0
 74
    0
 49
-0.9525
 74
    0
  0
LTYPE
  5
40
330
5
100
AcDbSymbolTableRecord
100
AcDbLinetypeTableRecord
  2
DIVIDE2
 70
    0
  3
Divide (.5x) __..__..__..__..__..__..__..__.._
 72
   65
 73
    6
 40
15.875
 49
6.35
 74
    0
 49
-3.175
 74
    0
 49
0
 74
    0
 49
-3.175
 74
    0
 49
0
 74
    0
 49
-3.175
 74
    0
  0
LTYPE
  5
41
330
5
100
AcDbSymbolTableRecord
100
AcDbLinetypeTableRecord
  2
DIVIDEX2
 70
    0
  3
Divide (2x) ________  .  .  ________  .  .  _
 72
   65
 73
    6
 40
63.5
 49
25.4
 74
    0
 49
-12.7
 74
    0
 49
0
 74
    0
 49
-12.7
 74
    0
 49
0
 74
    0
 49
-12.7
 74
    0
  0
LTYPE
  5
42
330
5
100
AcDbSymbolTableRecord
100
AcDbLinetypeTableRecord
  2
BORDER
 70
    0
  3
Border __ __ . __ __ . __ __ . __ __ . __ __ .
 72
   65
 73
    6
 40
44.45
 49
12.7
 74
    0
 49
-6.35
 74
    0
 49
12.7
 74
    0
 49
-6.35
 74
    0
 49
0
 74
    0
 49
-6.35
 74
    0
  0
LTYPE
  5
43
330
5
100
AcDbSymbolTableRecord
100
AcDbLinetypeTableRecord
  2
BORDERTINY
 70
    0
  3
Border (.15x) __.__.__.__.__.__.__.__.__.__.__.
 72
   65
 73
    6
 40
6.6675
 49
1.905
 74
    0
 49
-0.9525
 74
    0
 49
1.905
 74
    0
 49
-0.9525
 74
    0
 49
0
 74
    0
 49
-0.9525
 74
    0
  0
LTYPE
  5
44
330
5
100
AcDbSymbolTableRecord
100
AcDbLinetypeTableRecord
  2
BORDER2
 70
    0
  3
Border (.5x) __.__.__.__.__.__.__.__.__.__.__.
 72
   65
 73
    6
 40
22.225
 49
6.35
 74
    0
 49
-3.175
 74
    0
 49
6.35
 74
    0
 49
-3.175
 74
    0
 49
0
 74
    0
 49
-3.175
 74
    0
  0
LTYPE
  5
45
330
5
100
AcDbSymbolTableRecord
100
AcDbLinetypeTableRecord
  2
BORDERX2
 70
    0
  3
Border (2x) ____  ____  .  ____  ____  .  ___
 72
   65
 73
    6
 40
88.89999999999999
 49
25.4
 74
    0
 49
-12.7
 74
    0
 49
25.4
 74
    0
 49
-12.7
 74
    0
 49
0
 74
    0
 49
-12.7
 74
    0
  0
LTYPE
  5
46
330
5
100
AcDbSymbolTableRecord
100
AcDbLinetypeTableRecord
  2
CENTER
 70
    0
  3
Center ____ _ ____ _ ____ _ ____ _ ____ _ ____
 72
   65
 73
    4
 40
50.8
 49
31.75
 74
    0
 49
-6.35
 74
    0
 49
6.35
 74
    0
 49
-6.35
 74
    0
  0
LTYPE
  5
47
330
5
100
AcDbSymbolTableRecord
100
AcDbLinetypeTableRecord
  2
CENTERTINY
 70
    0
  3
Center (.15x) ___ _ ___ _ ___ _ ___ _ ___ _ ___
 72
   65
 73
    4
 40
7.619999999999999
 49
4.7625
 74
    0
 49
-0.9525
 74
    0
 49
0.9525
 74
    0
 49
-0.9525
 74
    0
  0
LTYPE
  5
48
330
5
100
AcDbSymbolTableRecord
100
AcDbLinetypeTableRecord
  2
CENTER2
 70
    0
  3
Center (.5x) ___ _ ___ _ ___ _ ___ _ ___ _ ___
 72
   65
 73
    4
 40
28.575
 49
19.05
 74
    0
 49
-3.175
 74
    0
 49
3.175
 74
    0
 49
-3.175
 74
    0
  0
LTYPE
  5
49
330
5
100
AcDbSymbolTableRecord
100
AcDbLinetypeTableRecord
  2
CENTERX2
 70
    0
  3
Center (2x) ________  __  ________  __  _____
 72
   65
 73
    4
 40
101.6
 49
63.5
 74
    0
 49
-12.7
 74
    0
 49
12.7
 74
    0
 49
-12.7
 74
    0
  0
ENDTAB
  0
TABLE
  2
LAYER
  5
2
330
0
100
AcDbSymbolTable
 70
    1
  0
LAYER
  5
10
330
2
100
AcDbSymbolTableRecord
100
AcDbLayerTableRecord
  2
0
 70
    0
 62
    7
  6
CONTINUOUS
370
   -3
390
F
  0
LAYER
  5
4A
330
2
100
AcDbSymbolTableRecord
100
AcDbLayerTableRecord
  2
Dimension
 70
    0
 62
    7
  6
CONTINUOUS
370
   -3
390
F
  0
LAYER
  5
4B
330
2
100
AcDbSymbolTableRecord
100
AcDbLayerTableRecord
  2
Dimension001
 70
    0
 62
    7
  6
CONTINUOUS
370
   -3
390
F
  0
LAYER
  5
4C
330
2
100
AcDbSymbolTableRecord
100
AcDbLayerTableRecord
  2
Dimension002
 70
    0
 62
    7
  6
CONTINUOUS
370
   -3
390
F
  0
LAYER
  5
4D
330
2
100
AcDbSymbolTableRecord
100
AcDbLayerTableRecord
  2
View
 70
    0
 62
    7
  6
CONTINUOUS
370
   -3
390
F
  0
LAYER
  5
4E
330
2
100
AcDbSymbolTableRecord
100
AcDbLayerTableRecord
  2
View001
 70
    0
 62
    7
  6
CONTINUOUS
370
   -3
390
F
  0
LAYER
  5
4F
330
2
100
AcDbSymbolTableRecord
100
AcDbLayerTableRecord
  2
View002
 70
    0
 62
    7
  6
CONTINUOUS
370
   -3
390
F
  0
LAYER
  5
50
330
2
100
AcDbSymbolTableRecord
100
AcDbLayerTableRecord
  2
View003
 70
    0
 62
    7
  6
CONTINUOUS
370
   -3
390
F
  0
ENDTAB
  0
TABLE
  2
STYLE
  5
3
330
0
100
AcDbSymbolTable
 70
    3
  0
STYLE
  5
51
330
2
100
AcDbSymbolTableRecord
100
AcDbTextStyleTableRecord
  2
Standard
 70
    0
 40
0
 41
1
 50
0
 71
    0
 42
1
  3
txt
  4

  0
ENDTAB
  0
TABLE
  2
VIEW
  5
6
330
0
100
AcDbSymbolTable
 70
    0
  0
ENDTAB
  0
TABLE
  2
UCS
  5
7
330
0
100
AcDbSymbolTable
 70
    0
  0
ENDTAB
  0
TABLE
  2
APPID
  5
9
330
0
100
AcDbSymbolTable
 70
    1
  0
APPID
  5
12
330
9
100
AcDbSymbolTableRecord
100
AcDbRegAppTableRecord
  2
ACAD
 70
    0
  0
APPID
  5
52
330
9
100
AcDbSymbolTableRecord
100
AcDbRegAppTableRecord
  2
LibreCad
 70
    0
  0
ENDTAB
  0
TABLE
  2
DIMSTYLE
  5
A
330
0
100
AcDbSymbolTable
 70
    1
100
AcDbDimStyleTable
 71
    1
  0
DIMSTYLE
105
53
330
A
100
AcDbSymbolTableRecord
100
AcDbDimStyleTableRecord
  2
Standard
 70
    0
 40
1
 41
2.5
 42
0.625
 43
0.38
 44
1.25
 45
0
 46
0
 47
0
 48
0
 49
1
140
2.5
141
0.09
142
0
143
25.4
144
1
145
0
146
1
147
0.625
148
0
 71
    0
 72
    0
 73
    0
 74
    1
 75
    0
 76
    0
 77
    0
 78
    1
 79
    0
170
    0
171
    2
172
    0
173
    0
174
    0
175
    0
176
    0
177
    0
178
    0
179
    0
271
    2
272
    4
273
    2
274
    2
275
    0
276
    0
277
    2
278
    0
279
    0
280
    0
281
    0
282
    0
283
    1
284
    0
285
    0
286
    0
288
    0
289
    3
340
STANDARD
341

371
   -2
372
   -2
  0
ENDTAB
  0
TABLE
  2
BLOCK_RECORD
  5
1
330
0
100
AcDbSymbolTable
 70
    2
  0
BLOCK_RECORD
  5
1F
330
1
100
AcDbSymbolTableRecord
100
AcDbBlockTableRecord
  2
*Model_Space
 70
    0
280
    1
281
    0
  0
BLOCK_RECORD
  5
1E
330
1
100
AcDbSymbolTableRecord
100
AcDbBlockTableRecord
  2
*Paper_Space
 70
    0
280
    1
281
    0
  0
BLOCK_RECORD
  5
54
330
1
100
AcDbSymbolTableRecord
100
AcDbBlockTableRecord
  2
*D1
 70
    0
280
    1
281
    0
  0
BLOCK_RECORD
  5
57
330
1
100
AcDbSymbolTableRecord
100
AcDbBlockTableRecord
  2
*D2
 70
    0
280
    1
281
    0
  0
BLOCK_RECORD
  5
5A
330
1
100
AcDbSymbolTableRecord
100
AcDbBlockTableRecord
  2
*D3
 70
    0
280
    1
281
    0
  0
ENDTAB
  0
ENDSEC
  0
SECTION
  2
BLOCKS
  0
BLOCK
  5
20
330
1F
100
AcDbEntity
  8
0
100
AcDbBlockBegin
  2
*Model_Space
 70
    0
 10
0
 20
0
 30
0
  3
*Model_Space
  1

  0
ENDBLK
  5
21
330
1F
100
AcDbEntity
  8
0
100
AcDbBlockEnd
  0
BLOCK
  5
1C
330
1B
100
AcDbEntity
  8
0
100
AcDbBlockBegin
  2
*Paper_Space
 70
    0
 10
0
 20
0
 30
0
  3
*Paper_Space
  1

  0
ENDBLK
  5
1D
330
1F
100
AcDbEntity
  8
0
100
AcDbBlockEnd
  0
BLOCK
  5
55
330
54
100
AcDbEntity
  8
0
100
AcDbBlockBegin
  2
*D1
 70
    1
 10
0
 20
0
  3
*D1
  1

  0
LINE
  5
5D
100
AcDbEntity
  8
Dimension
  6
ByBlock
 62
    0
370
   -2
100
AcDbLine
 10
230.171
 20
203.74
 11
87.2958
 21
203.74
  0
SOLID
  5
5E
100
AcDbEntity
  8
Dimension
  6
ByBlock
 62
    0
370
   -2
100
AcDbTrace
 10
230.171
 20
203.74
 30
0
 11
227.671
 21
203.3237153422272
 31
0
 12
227.671
 22
204.1562846577729
 32
0
 13
227.671
 23
204.1562846577729
 33
0
  0
SOLID
  5
5F
100
AcDbEntity
  8
Dimension
  6
ByBlock
 62
    0
370
   -2
100
AcDbTrace
 10
87.2958
 20
203.74
 30
0
 11
89.7958
 21
204.1562846577729
 31
0
 12
89.7958
 22
203.3237153422272
 32
0
 13
89.7958
 23
203.3237153422272
 33
0
  0
MTEXT
  5
60
100
AcDbEntity
  8
Dimension
  6
CONTINUOUS
 62
    0
370
   -2
100
AcDbMText
 10
158.733
 20
198.74
 30
0
 40
2.5
 41
1.944444444444561
 71
    5
 72
    1
  1
 in
  7
STANDARD
210
0
220
0
230
1
 50
360
 73
    2
 44
1
  0
LINE
  5
61
100
AcDbEntity
  8
Dimension
  6
ByBlock
 62
    0
370
   -2
100
AcDbLine
 10
230.171
 20
180.847
 11
230.171
 21
204.99
  0
LINE
  5
62
100
AcDbEntity
  8
Dimension
  6
ByBlock
 62
    0
370
   -2
100
AcDbLine
 10
87.2958
 20
180.847
 11
87.2958
 21
204.99
  0
ENDBLK
  5
56
330
54
100
AcDbEntity
  8
0
100
AcDbBlockEnd
  0
BLOCK
  5
58
330
57
100
AcDbEntity
  8
0
100
AcDbBlockBegin
  2
*D2
 70
    1
 10
0
 20
0
  3
*D2
  1

  0
LINE
  5
63
100
AcDbEntity
  8
Dimension001
  6
ByBlock
 62
    0
370
   -2
100
AcDbLine
 10
240.324
 20
188.16
 11
240.324
 21
169.11
  0
SOLID
  5
64
100
AcDbEntity
  8
Dimension001
  6
ByBlock
 62
    0
370
   -2
100
AcDbTrace
 10
240.324
 20
188.16
 30
0
 11
240.7402846577729
 21
185.66
 31
0
 12
239.9077153422272
 22
185.66
 32
0
 13
239.9077153422272
 23
185.66
 33
0
  0
SOLID
  5
65
100
AcDbEntity
  8
Dimension001
  6
ByBlock
 62
    0
370
   -2
100
AcDbTrace
 10
240.324
 20
169.11
 30
0
 11
239.9077153422272
 21
171.61
 31
0
 12
240.7402846577729
 22
171.61
 32
0
 13
240.7402846577729
 23
171.61
 33
0
  0
MTEXT
  5
66
100
AcDbEntity
  8
Dimension001
  6
CONTINUOUS
 62
    0
370
   -2
100
AcDbMText
 10
235.324
 20
181.038
 30
0
 40
2.5
 41
1.944444444444561
 71
    5
 72
    1
  1
 in
  7
STANDARD
210
0
220
0
230
1
 50
90
 73
    2
 44
1
  0
LINE
  5
67
100
AcDbEntity
  8
Dimension001
  6
ByBlock
 62
    0
370
   -2
100
AcDbLine
 10
88.7145
 20
188.16
 11
241.574
 21
188.16
  0
LINE
  5
68
100
AcDbEntity
  8
Dimension001
  6
ByBlock
 62
    0
370
   -2
100
AcDbLine
 10
88.7145
 20
169.11
 11
241.574
 21
169.11
  0
ENDBLK
  5
59
330
57
100
AcDbEntity
  8
0
100
AcDbBlockEnd
  0
BLOCK
  5
5B
330
5A
100
AcDbEntity
  8
0
100
AcDbBlockBegin
  2
*D3
 70
    1
 10
0
 20
0
  3
*D3
  1

  0
LINE
  5
69
100
AcDbEntity
  8
Dimension002
  6
ByBlock
 62
    0
370
   -2
100
AcDbLine
 10
73.1362
 20
188.16
 11
73.1362
 21
162.76
  0
SOLID
  5
6A
100
AcDbEntity
  8
Dimension002
  6
ByBlock
 62
    0
370
   -2
100
AcDbTrace
 10
73.1362
 20
188.16
 30
0
 11
73.55248465777284
 21
185.66
 31
0
 12
72.71991534222717
 22
185.66
 32
0
 13
72.71991534222717
 23
185.66
 33
0
  0
SOLID
  5
6B
100
AcDbEntity
  8
Dimension002
  6
ByBlock
 62
    0
370
   -2
100
AcDbTrace
 10
73.1362
 20
162.76
 30
0
 11
72.71991534222717
 21
165.26
 31
0
 12
73.55248465777284
 22
165.26
 32
0
 13
73.55248465777284
 23
165.26
 33
0
  0
MTEXT
  5
6C
100
AcDbEntity
  8
Dimension002
  6
CONTINUOUS
 62
    0
370
   -2
100
AcDbMText
 10
68.1386
 20
176.258
 30
0
 40
2.5
 41
1.944444444444561
 71
    5
 72
    1
  1
 in
  7
STANDARD
210
0
220
0
230
1
 50
90
 73
    2
 44
1
  0
LINE
  5
6D
100
AcDbEntity
  8
Dimension002
  6
ByBlock
 62
    0
370
   -2
100
AcDbLine
 10
87.4645
 20
188.16
 11
71.8862
 21
188.16
  0
LINE
  5
6E
100
AcDbEntity
  8
Dimension002
  6
ByBlock
 62
    0
370
   -2
100
AcDbLine
 10
86.6708
 20
162.76
 11
71.8862
 21
162.76
  0
ENDBLK
  5
5C
330
5A
100
AcDbEntity
  8
0
100
AcDbBlockEnd
  0
ENDSEC
  0
SECTION
  2
ENTITIES
  0
LINE
  5
6F
100
AcDbEntity
  8
View001
  6
ByLayer
 62
  256
370
   -1
100
AcDbLine
 10
88.0895
 20
188.16
 11
230.171
 21
188.16
  0
ARC
  5
70
100
AcDbEntity
  8
View001
  6
ByLayer
 62
  256
370
   -1
100
AcDbCircle
 10
88.0895
 20
187.366
 40
0.79375
100
AcDbArc
 50
90
 51
180
  0
LINE
  5
71
100
AcDbEntity
  8
View001
  6
ByLayer
 62
  256
370
   -1
100
AcDbLine
 10
230.171
 20
188.16
 11
230.171
 21
180.222
  0
LINE
  5
72
100
AcDbEntity
  8
View001
  6
ByLayer
 62
  256
370
   -1
100
AcDbLine
 10
87.2958
 20
170.697
 11
87.2958
 21
187.366
  0
LINE
  5
73
100
AcDbEntity
  8
View001
  6
ByLayer
 62
  256
370
   -1
100
AcDbLine
 10
230.171
 20
180.222
 11
168.576
 21
180.222
  0
ARC
  5
74
100
AcDbEntity
  8
View001
  6
ByLayer
 62
  256
370
   -1
100
AcDbCircle
 10
88.88330000000001
 20
170.697
 40
1.5875
100
AcDbArc
 50
180
 51
-90
  0
ARC
  5
75
100
AcDbEntity
  8
View001
  6
ByLayer
 62
  256
370
   -1
100
AcDbCircle
 10
168.576
 20
175.142
 40
5.08
100
AcDbArc
 50
90
 51
180
  0
LINE
  5
76
100
AcDbEntity
  8
View001
  6
ByLayer
 62
  256
370
   -1
100
AcDbLine
 10
163.496
 20
175.142
 11
163.496
 21
170.697
  0
LINE
  5
77
100
AcDbEntity
  8
View001
  6
ByLayer
 62
  256
370
   -1
100
AcDbLine
 10
90.4708
 20
181.81
 11
90.4708
 21
169.11
  0
ARC
  5
78
100
AcDbEntity
  8
View001
  6
ByLayer
 62
  256
370
   -1
100
AcDbCircle
 10
161.908
 20
170.697
 40
1.5875
100
AcDbArc
 50
-90
 51
0
  0
LINE
  5
79
100
AcDbEntity
  8
View001
  6
ByLayer
 62
  256
370
   -1
100
AcDbLine
 10
91.9948
 20
181.81
 11
90.4708
 21
181.81
  0
LINE
  5
7A
100
AcDbEntity
  8
View001
  6
ByLayer
 62
  256
370
   -1
100
AcDbLine
 10
91.9948
 20
169.11
 11
91.9948
 21
181.81
  0
LINE
  5
7B
100
AcDbEntity
  8
View001
  6
ByLayer
 62
  256
370
   -1
100
AcDbLine
 10
160.321
 20
169.11
 11
160.321
 21
181.81
  0
LINE
  5
7C
100
AcDbEntity
  8
View001
  6
ByLayer
 62
  256
370
   -1
100
AcDbLine
 10
160.321
 20
181.81
 11
158.797
 21
181.81
  0
LINE
  5
7D
100
AcDbEntity
  8
View001
  6
ByLayer
 62
  256
370
   -1
100
AcDbLine
 10
93.5765
 20
181.81
 11
93.5765
 21
169.11
  0
LINE
  5
7E
100
AcDbEntity
  8
View001
  6
ByLayer
 62
  256
370
   -1
100
AcDbLine
 10
158.797
 20
181.81
 11
158.797
 21
169.11
  0
LINE
  5
7F
100
AcDbEntity
  8
View001
  6
ByLayer
 62
  256
370
   -1
100
AcDbLine
 10
95.1005
 20
181.81
 11
93.5765
 21
181.81
  0
LINE
  5
80
100
AcDbEntity
  8
View001
  6
ByLayer
 62
  256
370
   -1
100
AcDbLine
 10
95.1005
 20
169.11
 11
95.1005
 21
181.81
  0
LINE
  5
81
100
AcDbEntity
  8
View001
  6
ByLayer
 62
  256
370
   -1
100
AcDbLine
 10
157.215
 20
169.11
 11
157.215
 21
181.81
  0
LINE
  5
82
100
AcDbEntity
  8
View001
  6
ByLayer
 62
  256
370
   -1
100
AcDbLine
 10
157.215
 20
181.81
 11
155.691
 21
181.81
  0
LINE
  5
83
100
AcDbEntity
  8
View001
  6
ByLayer
 62
  256
370
   -1
100
AcDbLine
 10
96.6823
 20
181.81
 11
96.6823
 21
169.11
  0
LINE
  5
84
100
AcDbEntity
  8
View001
  6
ByLayer
 62
  256
370
   -1
100
AcDbLine
 10
155.691
 20
181.81
 11
155.691
 21
169.11
  0
LINE
  5
85
100
AcDbEntity
  8
View001
  6
ByLayer
 62
  256
370
   -1
100
AcDbLine
 10
98.2063
 20
181.81
 11
96.6823
 21
181.81
  0
LINE
  5
86
100
AcDbEntity
  8
View001
  6
ByLayer
 62
  256
370
   -1
100
AcDbLine
 10
98.2063
 20
169.11
 11
98.2063
 21
181.81
  0
LINE
  5
87
100
AcDbEntity
  8
View001
  6
ByLayer
 62
  256
370
   -1
100
AcDbLine
 10
154.109
 20
169.11
 11
154.109
 21
181.81
  0
LINE
  5
88
100
AcDbEntity
  8
View001
  6
ByLayer
 62
  256
370
   -1
100
AcDbLine
 10
154.109
 20
181.81
 11
152.585
 21
181.81
  0
LINE
  5
89
100
AcDbEntity
  8
View001
  6
ByLayer
 62
  256
370
   -1
100
AcDbLine
 10
99.788
 20
181.81
 11
99.788
 21
169.11
  0
LINE
  5
8A
100
AcDbEntity
  8
View001
  6
ByLayer
 62
  256
370
   -1
100
AcDbLine
 10
152.585
 20
181.81
 11
152.585
 21
169.11
  0
LINE
  5
8B
100
AcDbEntity
  8
View001
  6
ByLayer
 62
  256
370
   -1
100
AcDbLine
 10
101.312
 20
181.81
 11
99.788
 21
181.81
  0
LINE
  5
8C
100
AcDbEntity
  8
View001
  6
ByLayer
 62
  256
370
   -1
100
AcDbLine
 10
101.312
 20
169.11
 11
101.312
 21
181.81
  0
LINE
  5
8D
100
AcDbEntity
  8
View001
  6
ByLayer
 62
  256
370
   -1
100
AcDbLine
 10
151.004
 20
169.11
 11
151.004
 21
181.81
  0
LINE
  5
8E
100
AcDbEntity
  8
View001
  6
ByLayer
 62
  256
370
   -1
100
AcDbLine
 10
151.004
 20
181.81
 11
149.48
 21
181.81
  0
LINE
  5
8F
100
AcDbEntity
  8
View001
  6
ByLayer
 62
  256
370
   -1
100
AcDbLine
 10
102.894
 20
181.81
 11
102.894
 21
169.11
  0
LINE
  5
90
100
AcDbEntity
  8
View001
  6
ByLayer
 62
  256
370
   -1
100
AcDbLine
 10
149.48
 20
181.81
 11
149.48
 21
169.11
  0
LINE
  5
91
100
AcDbEntity
  8
View001
  6
ByLayer
 62
  256
370
   -1
100
AcDbLine
 10
104.418
 20
181.81
 11
102.894
 21
181.81
  0
LINE
  5
92
100
AcDbEntity
  8
View001
  6
ByLayer
 62
  256
370
   -1
100
AcDbLine
 10
104.418
 20
169.11
 11
104.418
 21
181.81
  0
LINE
  5
93
100
AcDbEntity
  8
View001
  6
ByLayer
 62
  256
370
   -1
100
AcDbLine
 10
147.898
 20
169.11
 11
147.898
 21
181.81
  0
LINE
  5
94
100
AcDbEntity
  8
View001
  6
ByLayer
 62
  256
370
   -1
100
AcDbLine
 10
147.898
 20
181.81
 11
146.374
 21
181.81
  0
LINE
  5
95
100
AcDbEntity
  8
View001
  6
ByLayer
 62
  256
370
   -1
100
AcDbLine
 10
105.999
 20
181.81
 11
105.999
 21
169.11
  0
LINE
  5
96
100
AcDbEntity
  8
View001
  6
ByLayer
 62
  256
370
   -1
100
AcDbLine
 10
146.374
 20
181.81
 11
146.374
 21
169.11
  0
LINE
  5
97
100
AcDbEntity
  8
View001
  6
ByLayer
 62
  256
370
   -1
100
AcDbLine
 10
107.523
 20
181.81
 11
105.999
 21
181.81
  0
LINE
  5
98
100
AcDbEntity
  8
View001
  6
ByLayer
 62
  256
370
   -1
100
AcDbLine
 10
107.523
 20
169.11
 11
107.523
 21
181.81
  0
LINE
  5
99
100
AcDbEntity
  8
View001
  6
ByLayer
 62
  256
370
   -1
100
AcDbLine
 10
144.792
 20
169.11
 11
144.792
 21
181.81
  0
LINE
  5
9A
100
AcDbEntity
  8
View001
  6
ByLayer
 62
  256
370
   -1
100
AcDbLine
 10
144.792
 20
181.81
 11
143.268
 21
181.81
  0
LINE
  5
9B
100
AcDbEntity
  8
View001
  6
ByLayer
 62
  256
370
   -1
100
AcDbLine
 10
109.105
 20
181.81
 11
109.105
 21
169.11
  0
LINE
  5
9C
100
AcDbEntity
  8
View001
  6
ByLayer
 62
  256
370
   -1
100
AcDbLine
 10
143.268
 20
181.81
 11
143.268
 21
169.11
  0
LINE
  5
9D
100
AcDbEntity
  8
View001
  6
ByLayer
 62
  256
370
   -1
100
AcDbLine
 10
110.629
 20
181.81
 11
109.105
 21
181.81
  0
LINE
  5
9E
100
AcDbEntity
  8
View001
  6
ByLayer
 62
  256
370
   -1
100
AcDbLine
 10
110.629
 20
169.11
 11
110.629
 21
181.81
  0
LINE
  5
9F
100
AcDbEntity
  8
View001
  6
ByLayer
 62
  256
370
   -1
100
AcDbLine
 10
141.686
 20
169.11
 11
141.686
 21
181.81
  0
LINE
  5
A0
100
AcDbEntity
  8
View001
  6
ByLayer
 62
  256
370
   -1
100
AcDbLine
 10
141.686
 20
181.81
 11
140.162
 21
181.81
  0
LINE
  5
A1
100
AcDbEntity
  8
View001
  6
ByLayer
 62
  256
370
   -1
100
AcDbLine
 10
112.211
 20
181.81
 11
112.211
 21
169.11
  0
LINE
  5
A2
100
AcDbEntity
  8
View001
  6
ByLayer
 62
  256
370
   -1
100
AcDbLine
 10
140.162
 20
181.81
 11
140.162
 21
169.11
  0
LINE
  5
A3
100
AcDbEntity
  8
View001
  6
ByLayer
 62
  256
370
   -1
100
AcDbLine
 10
113.735
 20
181.81
 11
112.211
 21
181.81
  0
LINE
  5
A4
100
AcDbEntity
  8
View001
  6
ByLayer
 62
  256
370
   -1
100
AcDbLine
 10
113.735
 20
169.11
 11
113.735
 21
181.81
  0
LINE
  5
A5
100
AcDbEntity
  8
View001
  6
ByLayer
 62
  256
370
   -1
100
AcDbLine
 10
138.581
 20
169.11
 11
138.581
 21
181.81
  0
LINE
  5
A6
100
AcDbEntity
  8
View001
  6
ByLayer
 62
  256
370
   -1
100
AcDbLine
 10
138.581
 20
181.81
 11
137.057
 21
181.81
  0
LINE
  5
A7
100
AcDbEntity
  8
View001
  6
ByLayer
 62
  256
370
   -1
100
AcDbLine
 10
115.317
 20
181.81
 11
115.317
 21
169.11
  0
LINE
  5
A8
100
AcDbEntity
  8
View001
  6
ByLayer
 62
  256
370
   -1
100
AcDbLine
 10
137.057
 20
181.81
 11
137.057
 21
169.11
  0
LINE
  5
A9
100
AcDbEntity
  8
View001
  6
ByLayer
 62
  256
370
   -1
100
AcDbLine
 10
116.841
 20
181.81
 11
115.317
 21
181.81
  0
LINE
  5
AA
100
AcDbEntity
  8
View001
  6
ByLayer
 62
  256
370
   -1
100
AcDbLine
 10
116.841
 20
169.11
 11
116.841
 21
181.81
  0
LINE
  5
AB
100
AcDbEntity
  8
View001
  6
ByLayer
 62
  256
370
   -1
100
AcDbLine
 10
135.475
 20
169.11
 11
135.475
 21
181.81
  0
LINE
  5
AC
100
AcDbEntity
  8
View001
  6
ByLayer
 62
  256
370
   -1
100
AcDbLine
 10
135.475
 20
181.81
 11
133.951
 21
181.81
  0
LINE
  5
AD
100
AcDbEntity
  8
View001
  6
ByLayer
 62
  256
370
   -1
100
AcDbLine
 10
118.422
 20
181.81
 11
118.422
 21
169.11
  0
LINE
  5
AE
100
AcDbEntity
  8
View001
  6
ByLayer
 62
  256
370
   -1
100
AcDbLine
 10
133.951
 20
181.81
 11
133.951
 21
169.11
  0
LINE
  5
AF
100
AcDbEntity
  8
View001
  6
ByLayer
 62
  256
370
   -1
100
AcDbLine
 10
119.946
 20
181.81
 11
118.422
 21
181.81
  0
LINE
  5
B0
100
AcDbEntity
  8
View001
  6
ByLayer
 62
  256
370
   -1
100
AcDbLine
 10
119.946
 20
169.11
 11
119.946
 21
181.81
  0
LINE
  5
B1
100
AcDbEntity
  8
View001
  6
ByLayer
 62
  256
370
   -1
100
AcDbLine
 10
132.369
 20
169.11
 11
132.369
 21
181.81
  0
LINE
  5
B2
100
AcDbEntity
  8
View001
  6
ByLayer
 62
  256
370
   -1
100
AcDbLine
 10
132.369
 20
181.81
 11
130.845
 21
181.81
  0
LINE
  5
B3
100
AcDbEntity
  8
View001
  6
ByLayer
 62
  256
370
   -1
100
AcDbLine
 10
121.528
 20
181.81
 11
121.528
 21
169.11
  0
LINE
  5
B4
100
AcDbEntity
  8
View001
  6
ByLayer
 62
  256
370
   -1
100
AcDbLine
 10
130.845
 20
181.81
 11
130.845
 21
169.11
  0
LINE
  5
B5
100
AcDbEntity
  8
View001
  6
ByLayer
 62
  256
370
   -1
100
AcDbLine
 10
123.052
 20
181.81
 11
121.528
 21
181.81
  0
LINE
  5
B6
100
AcDbEntity
  8
View001
  6
ByLayer
 62
  256
370
   -1
100
AcDbLine
 10
123.052
 20
169.11
 11
123.052
 21
181.81
  0
LINE
  5
B7
100
AcDbEntity
  8
View001
  6
ByLayer
 62
  256
370
   -1
100
AcDbLine
 10
129.264
 20
169.11
 11
129.264
 21
181.81
  0
LINE
  5
B8
100
AcDbEntity
  8
View001
  6
ByLayer
 62
  256
370
   -1
100
AcDbLine
 10
129.264
 20
181.81
 11
127.74
 21
181.81
  0
LINE
  5
B9
100
AcDbEntity
  8
View001
  6
ByLayer
 62
  256
370
   -1
100
AcDbLine
 10
124.634
 20
181.81
 11
124.634
 21
169.11
  0
LINE
  5
BA
100
AcDbEntity
  8
View001
  6
ByLayer
 62
  256
370
   -1
100
AcDbLine
 10
127.74
 20
181.81
 11
127.74
 21
169.11
  0
LINE
  5
BB
100
AcDbEntity
  8
View001
  6
ByLayer
 62
  256
370
   -1
100
AcDbLine
 10
126.158
 20
181.81
 11
124.634
 21
181.81
  0
LINE
  5
BC
100
AcDbEntity
  8
View001
  6
ByLayer
 62
  256
370
   -1
100
AcDbLine
 10
126.158
 20
169.11
 11
126.158
 21
181.81
  0
CIRCLE
  5
BD
100
AcDbEntity
  8
View001
  6
ByLayer
 62
  256
370
   -1
100
AcDbCircle
 10
201.596
 20
184.191
 40
1.524
  0
LINE
  5
BE
100
AcDbEntity
  8
View001
  6
ByLayer
 62
  256
370
   -1
100
AcDbLine
 10
163.496
 20
169.11
 11
163.496
 21
165.935
  0
LINE
  5
BF
100
AcDbEntity
  8
View001
  6
ByLayer
 62
  256
370
   -1
100
AcDbLine
 10
163.496
 20
169.11
 11
87.2958
 21
169.11
  0
LINE
  5
C0
100
AcDbEntity
  8
View001
  6
ByLayer
 62
  256
370
   -1
100
AcDbLine
 10
163.496
 20
165.935
 11
87.2958
 21
162.76
  0
ARC
  5
C1
100
AcDbEntity
  8
View001
  6
ByLayer
 62
  256
370
   -1
100
AcDbCircle
 10
201.596
 20
184.191
 40
115.291
100
AcDbArc
 50
180
 51
-172.484
  0
LINE
  5
C2
100
AcDbEntity
  8
View001
  6
ByLayer
 62
  256
370
   -1
100
AcDbLine
 10
87.2958
 20
162.76
 11
74.5958
 21
175.46
  0
LINE
  5
C3
100
AcDbEntity
  8
View001
  6
ByLayer
 62
  256
370
   -1
100
AcDbLine
 10
80.94580000000001
 20
184.191
 11
86.3051
 21
184.191
  0
LINE
  5
C4
100
AcDbEntity
  8
View001
  6
ByLayer
 62
  256
370
   -1
100
AcDbLine
 10
74.5958
 20
175.46
 11
80.94580000000001
 21
184.191
  0
CIRCLE
  5
C5
100
AcDbEntity
  8
View001
  6
ByLayer
 62
  256
370
   -1
100
AcDbCircle
 10
80.94580000000001
 20
175.46
 40
1.524
  0
LINE
  5
C6
100
AcDbEntity
  8
View
  6
ByLayer
 62
  256
370
   -1
100
AcDbLine
 10
82.74079999999999
 20
100.733
 11
224.822
 21
100.733
  0
ARC
  5
C7
100
AcDbEntity
  8
View
  6
ByLayer
 62
  256
370
   -1
100
AcDbCircle
 10
82.74079999999999
 20
99.9397
 40
0.79375
100
AcDbArc
 50
90
 51
180
  0
LINE
  5
C8
100
AcDbEntity
  8
View
  6
ByLayer
 62
  256
370
   -1
100
AcDbLine
 10
224.822
 20
100.733
 11
224.822
 21
92.7959
  0
LINE
  5
C9
100
AcDbEntity
  8
View
  6
ByLayer
 62
  256
370
   -1
100
AcDbLine
 10
81.947
 20
83.2709
 11
81.947
 21
99.9397
  0
LINE
  5
CA
100
AcDbEntity
  8
View
  6
ByLayer
 62
  256
370
   -1
100
AcDbLine
 10
224.822
 20
92.7959
 11
163.227
 21
92.7959
  0
ARC
  5
CB
100
AcDbEntity
  8
View
  6
ByLayer
 62
  256
370
   -1
100
AcDbCircle
 10
83.53449999999999
 20
83.2709
 40
1.5875
100
AcDbArc
 50
180
 51
-90
  0
ARC
  5
CC
100
AcDbEntity
  8
View
  6
ByLayer
 62
  256
370
   -1
100
AcDbCircle
 10
163.227
 20
87.7159
 40
5.08
100
AcDbArc
 50
90
 51
180
  0
LINE
  5
CD
100
AcDbEntity
  8
View
  6
ByLayer
 62
  256
370
   -1
100
AcDbLine
 10
83.53449999999999
 20
81.68340000000001
 11
85.122
 21
81.68340000000001
  0
LINE
  5
CE
100
AcDbEntity
  8
View
  6
ByLayer
 62
  256
370
   -1
100
AcDbLine
 10
158.147
 20
87.7159
 11
158.147
 21
83.2709
  0
LINE
  5
CF
100
AcDbEntity
  8
View
  6
ByLayer
 62
  256
370
   -1
100
AcDbLine
 10
85.122
 20
94.38339999999999
 11
85.122
 21
81.68340000000001
  0
ARC
  5
D0
100
AcDbEntity
  8
View
  6
ByLayer
 62
  256
370
   -1
100
AcDbCircle
 10
156.56
 20
83.2709
 40
1.5875
100
AcDbArc
 50
-90
 51
0
  0
LINE
  5
D1
100
AcDbEntity
  8
View
  6
ByLayer
 62
  256
370
   -1
100
AcDbLine
 10
86.646
 20
94.38339999999999
 11
85.122
 21
94.38339999999999
  0
LINE
  5
D2
100
AcDbEntity
  8
View
  6
ByLayer
 62
  256
370
   -1
100
AcDbLine
 10
154.972
 20
81.68340000000001
 11
156.56
 21
81.68340000000001
  0
LINE
  5
D3
100
AcDbEntity
  8
View
  6
ByLayer
 62
  256
370
   -1
100
AcDbLine
 10
86.646
 20
81.68340000000001
 11
86.646
 21
94.38339999999999
  0
LINE
  5
D4
100
AcDbEntity
  8
View
  6
ByLayer
 62
  256
370
   -1
100
AcDbLine
 10
154.972
 20
81.68340000000001
 11
154.972
 21
94.38339999999999
  0
LINE
  5
D5
100
AcDbEntity
  8
View
  6
ByLayer
 62
  256
370
   -1
100
AcDbLine
 10
86.646
 20
81.68340000000001
 11
88.2277
 21
81.68340000000001
  0
LINE
  5
D6
100
AcDbEntity
  8
View
  6
ByLayer
 62
  256
370
   -1
100
AcDbLine
 10
154.972
 20
94.38339999999999
 11
153.448
 21
94.38339999999999
  0
LINE
  5
D7
100
AcDbEntity
  8
View
  6
ByLayer
 62
  256
370
   -1
100
AcDbLine
 10
88.2277
 20
94.38339999999999
 11
88.2277
 21
81.68340000000001
  0
LINE
  5
D8
100
AcDbEntity
  8
View
  6
ByLayer
 62
  256
370
   -1
100
AcDbLine
 10
153.448
 20
94.38339999999999
 11
153.448
 21
81.68340000000001
  0
LINE
  5
D9
100
AcDbEntity
  8
View
  6
ByLayer
 62
  256
370
   -1
100
AcDbLine
 10
89.7517
 20
94.38339999999999
 11
88.2277
 21
94.38339999999999
  0
LINE
  5
DA
100
AcDbEntity
  8
View
  6
ByLayer
 62
  256
370
   -1
100
AcDbLine
 10
151.866
 20
81.68340000000001
 11
153.448
 21
81.68340000000001
  0
LINE
  5
DB
100
AcDbEntity
  8
View
  6
ByLayer
 62
  256
370
   -1
100
AcDbLine
 10
89.7517
 20
81.68340000000001
 11
89.7517
 21
94.38339999999999
  0
LINE
  5
DC
100
AcDbEntity
  8
View
  6
ByLayer
 62
  256
370
   -1
100
AcDbLine
 10
151.866
 20
81.68340000000001
 11
151.866
 21
94.38339999999999
  0
LINE
  5
DD
100
AcDbEntity
  8
View
  6
ByLayer
 62
  256
370
   -1
100
AcDbLine
 10
89.7517
 20
81.68340000000001
 11
91.3335
 21
81.68340000000001
  0
LINE
  5
DE
100
AcDbEntity
  8
View
  6
ByLayer
 62
  256
370
   -1
100
AcDbLine
 10
151.866
 20
94.38339999999999
 11
150.342
 21
94.38339999999999
  0
LINE
  5
DF
100
AcDbEntity
  8
View
  6
ByLayer
 62
  256
370
   -1
100
AcDbLine
 10
91.3335
 20
94.38339999999999
 11
91.3335
 21
81.68340000000001
  0
LINE
  5
E0
100
AcDbEntity
  8
View
  6
ByLayer
 62
  256
370
   -1
100
AcDbLine
 10
150.342
 20
94.38339999999999
 11
150.342
 21
81.68340000000001
  0
LINE
  5
E1
100
AcDbEntity
  8
View
  6
ByLayer
 62
  256
370
   -1
100
AcDbLine
 10
92.8575
 20
94.38339999999999
 11
91.3335
 21
94.38339999999999
  0
LINE
  5
E2
100
AcDbEntity
  8
View
  6
ByLayer
 62
  256
370
   -1
100
AcDbLine
 10
148.761
 20
81.68340000000001
 11
150.342
 21
81.68340000000001
  0
LINE
  5
E3
100
AcDbEntity
  8
View
  6
ByLayer
 62
  256
370
   -1
100
AcDbLine
 10
92.8575
 20
81.68340000000001
 11
92.8575
 21
94.38339999999999
  0
LINE
  5
E4
100
AcDbEntity
  8
View
  6
ByLayer
 62
  256
370
   -1
100
AcDbLine
 10
148.761
 20
81.68340000000001
 11
148.761
 21
94.38339999999999
  0
LINE
  5
E5
100
AcDbEntity
  8
View
  6
ByLayer
 62
  256
370
   -1
100
AcDbLine
 10
92.8575
 20
81.68340000000001
 11
94.4392
 21
81.68340000000001
  0
LINE
  5
E6
100
AcDbEntity
  8
View
  6
ByLayer
 62
  256
370
   -1
100
AcDbLine
 10
148.761
 20
94.38339999999999
 11
147.237
 21
94.38339999999999
  0
LINE
  5
E7
100
AcDbEntity
  8
View
  6
ByLayer
 62
  256
370
   -1
100
AcDbLine
 10
94.4392
 20
94.38339999999999
 11
94.4392
 21
81.68340000000001
  0
LINE
  5
E8
100
AcDbEntity
  8
View
  6
ByLayer
 62
  256
370
   -1
100
AcDbLine
 10
147.237
 20
94.38339999999999
 11
147.237
 21
81.68340000000001
  0
LINE
  5
E9
100
AcDbEntity
  8
View
  6
ByLayer
 62
  256
370
   -1
100
AcDbLine
 10
95.9632
 20
94.38339999999999
 11
94.4392
 21
94.38339999999999
  0
LINE
  5
EA
100
AcDbEntity
  8
View
  6
ByLayer
 62
  256
370
   -1
100
AcDbLine
 10
145.655
 20
81.68340000000001
 11
147.237
 21
81.68340000000001
  0
LINE
  5
EB
100
AcDbEntity
  8
View
  6
ByLayer
 62
  256
370
   -1
100
AcDbLine
 10
95.9632
 20
81.68340000000001
 11
95.9632
 21
94.38339999999999
  0
LINE
  5
EC
100
AcDbEntity
  8
View
  6
ByLayer
 62
  256
370
   -1
100
AcDbLine
 10
145.655
 20
81.68340000000001
 11
145.655
 21
94.38339999999999
  0
LINE
  5
ED
100
AcDbEntity
  8
View
  6
ByLayer
 62
  256
370
   -1
100
AcDbLine
 10
95.9632
 20
81.68340000000001
 11
97.5449
 21
81.68340000000001
  0
LINE
  5
EE
100
AcDbEntity
  8
View
  6
ByLayer
 62
  256
370
   -1
100
AcDbLine
 10
145.655
 20
94.38339999999999
 11
144.131
 21
94.38339999999999
  0
LINE
  5
EF
100
AcDbEntity
  8
View
  6
ByLayer
 62
  256
370
   -1
100
AcDbLine
 10
97.5449
 20
94.38339999999999
 11
97.5449
 21
81.68340000000001
  0
LINE
  5
F0
100
AcDbEntity
  8
View
  6
ByLayer
 62
  256
370
   -1
100
AcDbLine
 10
144.131
 20
94.38339999999999
 11
144.131
 21
81.68340000000001
  0
LINE
  5
F1
100
AcDbEntity
  8
View
  6
ByLayer
 62
  256
370
   -1
100
AcDbLine
 10
99.0689
 20
94.38339999999999
 11
97.5449
 21
94.38339999999999
  0
LINE
  5
F2
100
AcDbEntity
  8
View
  6
ByLayer
 62
  256
370
   -1
100
AcDbLine
 10
142.549
 20
81.68340000000001
 11
144.131
 21
81.68340000000001
  0
LINE
  5
F3
100
AcDbEntity
  8
View
  6
ByLayer
 62
  256
370
   -1
100
AcDbLine
 10
99.0689
 20
81.68340000000001
 11
99.0689
 21
94.38339999999999
  0
LINE
  5
F4
100
AcDbEntity
  8
View
  6
ByLayer
 62
  256
370
   -1
100
AcDbLine
 10
142.549
 20
81.68340000000001
 11
142.549
 21
94.38339999999999
  0
LINE
  5
F5
100
AcDbEntity
  8
View
  6
ByLayer
 62
  256
370
   -1
100
AcDbLine
 10
99.0689
 20
81.68340000000001
 11
100.651
 21
81.68340000000001
  0
LINE
  5
F6
100
AcDbEntity
  8
View
  6
ByLayer
 62
  256
370
   -1
100
AcDbLine
 10
142.549
 20
94.38339999999999
 11
141.025
 21
94.38339999999999
  0
LINE
  5
F7
100
AcDbEntity
  8
View
  6
ByLayer
 62
  256
370
   -1
100
AcDbLine
 10
100.651
 20
94.38339999999999
 11
100.651
 21
81.68340000000001
  0
LINE
  5
F8
100
AcDbEntity
  8
View
  6
ByLayer
 62
  256
370
   -1
100
AcDbLine
 10
141.025
 20
94.38339999999999
 11
141.025
 21
81.68340000000001
  0
LINE
  5
F9
100
AcDbEntity
  8
View
  6
ByLayer
 62
  256
370
   -1
100
AcDbLine
 10
102.175
 20
94.38339999999999
 11
100.651
 21
94.38339999999999
  0
LINE
  5
FA
100
AcDbEntity
  8
View
  6
ByLayer
 62
  256
370
   -1
100
AcDbLine
 10
139.443
 20
81.68340000000001
 11
141.025
 21
81.68340000000001
  0
LINE
  5
FB
100
AcDbEntity
  8
View
  6
ByLayer
 62
  256
370
   -1
100
AcDbLine
 10
102.175
 20
81.68340000000001
 11
102.175
 21
94.38339999999999
  0
LINE
  5
FC
100
AcDbEntity
  8
View
  6
ByLayer
 62
  256
370
   -1
100
AcDbLine
 10
139.443
 20
81.68340000000001
 11
139.443
 21
94.38339999999999
  0
LINE
  5
FD
100
AcDbEntity
  8
View
  6
ByLayer
 62
  256
370
   -1
100
AcDbLine
 10
102.175
 20
81.68340000000001
 11
103.756
 21
81.68340000000001
  0
LINE
  5
FE
100
AcDbEntity
  8
View
  6
ByLayer
 62
  256
370
   -1
100
AcDbLine
 10
139.443
 20
94.38339999999999
 11
137.919
 21
94.38339999999999
  0
LINE
  5
FF
100
AcDbEntity
  8
View
  6
ByLayer
 62
  256
370
   -1
100
AcDbLine
 10
103.756
 20
94.38339999999999
 11
103.756
 21
81.68340000000001
  0
LINE
  5
100
100
AcDbEntity
  8
View
  6
ByLayer
 62
  256
370
   -1
100
AcDbLine
 10
137.919
 20
94.38339999999999
 11
137.919
 21
81.68340000000001
  0
LINE
  5
101
100
AcDbEntity
  8
View
  6
ByLayer
 62
  256
370
   -1
100
AcDbLine
 10
105.28
 20
94.38339999999999
 11
103.756
 21
94.38339999999999
  0
LINE
  5
102
100
AcDbEntity
  8
View
  6
ByLayer
 62
  256
370
   -1
100
AcDbLine
 10
136.338
 20
81.68340000000001
 11
137.919
 21
81.68340000000001
  0
LINE
  5
103
100
AcDbEntity
  8
View
  6
ByLayer
 62
  256
370
   -1
100
AcDbLine
 10
105.28
 20
81.68340000000001
 11
105.28
 21
94.38339999999999
  0
LINE
  5
104
100
AcDbEntity
  8
View
  6
ByLayer
 62
  256
370
   -1
100
AcDbLine
 10
136.338
 20
81.68340000000001
 11
136.338
 21
94.38339999999999
  0
LINE
  5
105
100
AcDbEntity
  8
View
  6
ByLayer
 62
  256
370
   -1
100
AcDbLine
 10
105.28
 20
81.68340000000001
 11
106.862
 21
81.68340000000001
  0
LINE
  5
106
100
AcDbEntity
  8
View
  6
ByLayer
 62
  256
370
   -1
100
AcDbLine
 10
136.338
 20
94.38339999999999
 11
134.814
 21
94.38339999999999
  0
LINE
  5
107
100
AcDbEntity
  8
View
  6
ByLayer
 62
  256
370
   -1
100
AcDbLine
 10
106.862
 20
94.38339999999999
 11
106.862
 21
81.68340000000001
  0
LINE
  5
108
100
AcDbEntity
  8
View
  6
ByLayer
 62
  256
370
   -1
100
AcDbLine
 10
134.814
 20
94.38339999999999
 11
134.814
 21
81.68340000000001
  0
LINE
  5
109
100
AcDbEntity
  8
View
  6
ByLayer
 62
  256
370
   -1
100
AcDbLine
 10
108.386
 20
94.38339999999999
 11
106.862
 21
94.38339999999999
  0
LINE
  5
10A
100
AcDbEntity
  8
View
  6
ByLayer
 62
  256
370
   -1
100
AcDbLine
 10
133.232
 20
81.68340000000001
 11
134.814
 21
81.68340000000001
  0
LINE
  5
10B
100
AcDbEntity
  8
View
  6
ByLayer
 62
  256
370
   -1
100
AcDbLine
 10
108.386
 20
81.68340000000001
 11
108.386
 21
94.38339999999999
  0
LINE
  5
10C
100
AcDbEntity
  8
View
  6
ByLayer
 62
  256
370
   -1
100
AcDbLine
 10
133.232
 20
81.68340000000001
 11
133.232
 21
94.38339999999999
  0
LINE
  5
10D
100
AcDbEntity
  8
View
  6
ByLayer
 62
  256
370
   -1
100
AcDbLine
 10
108.386
 20
81.68340000000001
 11
109.968
 21
81.68340000000001
  0
LINE
  5
10E
100
AcDbEntity
  8
View
  6
ByLayer
 62
  256
370
   -1
100
AcDbLine
 10
133.232
 20
94.38339999999999
 11
131.708
 21
94.38339999999999
  0
LINE
  5
10F
100
AcDbEntity
  8
View
  6
ByLayer
 62
  256
370
   -1
100
AcDbLine
 10
109.968
 20
94.38339999999999
 11
109.968
 21
81.68340000000001
  0
LINE
  5
110
100
AcDbEntity
  8
View
  6
ByLayer
 62
  256
370
   -1
100
AcDbLine
 10
131.708
 20
94.38339999999999
 11
131.708
 21
81.68340000000001
  0
LINE
  5
111
100
AcDbEntity
  8
View
  6
ByLayer
 62
  256
370
   -1
100
AcDbLine
 10
111.492
 20
94.38339999999999
 11
109.968
 21
94.38339999999999
  0
LINE
  5
112
100
AcDbEntity
  8
View
  6
ByLayer
 62
  256
370
   -1
100
AcDbLine
 10
130.126
 20
81.68340000000001
 11
131.708
 21
81.68340000000001
  0
LINE
  5
113
100
AcDbEntity
  8
View
  6
ByLayer
 62
  256
370
   -1
100
AcDbLine
 10
111.492
 20
81.68340000000001
 11
111.492
 21
94.38339999999999
  0
LINE
  5
114
100
AcDbEntity
  8
View
  6
ByLayer
 62
  256
370
   -1
100
AcDbLine
 10
130.126
 20
81.68340000000001
 11
130.126
 21
94.38339999999999
  0
LINE
  5
115
100
AcDbEntity
  8
View
  6
ByLayer
 62
  256
370
   -1
100
AcDbLine
 10
111.492
 20
81.68340000000001
 11
113.074
 21
81.68340000000001
  0
LINE
  5
116
100
AcDbEntity
  8
View
  6
ByLayer
 62
  256
370
   -1
100
AcDbLine
 10
130.126
 20
94.38339999999999
 11
128.602
 21
94.38339999999999
  0
LINE
  5
117
100
AcDbEntity
  8
View
  6
ByLayer
 62
  256
370
   -1
100
AcDbLine
 10
113.074
 20
94.38339999999999
 11
113.074
 21
81.68340000000001
  0
LINE
  5
118
100
AcDbEntity
  8
View
  6
ByLayer
 62
  256
370
   -1
100
AcDbLine
 10
128.602
 20
94.38339999999999
 11
128.602
 21
81.68340000000001
  0
LINE
  5
119
100
AcDbEntity
  8
View
  6
ByLayer
 62
  256
370
   -1
100
AcDbLine
 10
114.598
 20
94.38339999999999
 11
113.074
 21
94.38339999999999
  0
LINE
  5
11A
100
AcDbEntity
  8
View
  6
ByLayer
 62
  256
370
   -1
100
AcDbLine
 10
127.02
 20
81.68340000000001
 11
128.602
 21
81.68340000000001
  0
LINE
  5
11B
100
AcDbEntity
  8
View
  6
ByLayer
 62
  256
370
   -1
100
AcDbLine
 10
114.598
 20
81.68340000000001
 11
114.598
 21
94.38339999999999
  0
LINE
  5
11C
100
AcDbEntity
  8
View
  6
ByLayer
 62
  256
370
   -1
100
AcDbLine
 10
127.02
 20
81.68340000000001
 11
127.02
 21
94.38339999999999
  0
LINE
  5
11D
100
AcDbEntity
  8
View
  6
ByLayer
 62
  256
370
   -1
100
AcDbLine
 10
114.598
 20
81.68340000000001
 11
116.179
 21
81.68340000000001
  0
LINE
  5
11E
100
AcDbEntity
  8
View
  6
ByLayer
 62
  256
370
   -1
100
AcDbLine
 10
127.02
 20
94.38339999999999
 11
125.496
 21
94.38339999999999
  0
LINE
  5
11F
100
AcDbEntity
  8
View
  6
ByLayer
 62
  256
370
   -1
100
AcDbLine
 10
116.179
 20
94.38339999999999
 11
116.179
 21
81.68340000000001
  0
LINE
  5
120
100
AcDbEntity
  8
View
  6
ByLayer
 62
  256
370
   -1
100
AcDbLine
 10
125.496
 20
94.38339999999999
 11
125.496
 21
81.68340000000001
  0
LINE
  5
121
100
AcDbEntity
  8
View
  6
ByLayer
 62
  256
370
   -1
100
AcDbLine
 10
117.703
 20
94.38339999999999
 11
116.179
 21
94.38339999999999
  0
LINE
  5
122
100
AcDbEntity
  8
View
  6
ByLayer
 62
  256
370
   -1
100
AcDbLine
 10
123.915
 20
81.68340000000001
 11
125.496
 21
81.68340000000001
  0
LINE
  5
123
100
AcDbEntity
  8
View
  6
ByLayer
 62
  256
370
   -1
100
AcDbLine
 10
117.703
 20
81.68340000000001
 11
117.703
 21
94.38339999999999
  0
LINE
  5
124
100
AcDbEntity
  8
View
  6
ByLayer
 62
  256
370
   -1
100
AcDbLine
 10
123.915
 20
81.68340000000001
 11
123.915
 21
94.38339999999999
  0
LINE
  5
125
100
AcDbEntity
  8
View
  6
ByLayer
 62
  256
370
   -1
100
AcDbLine
 10
117.703
 20
81.68340000000001
 11
119.285
 21
81.68340000000001
  0
LINE
  5
126
100
AcDbEntity
  8
View
  6
ByLayer
 62
  256
370
   -1
100
AcDbLine
 10
123.915
 20
94.38339999999999
 11
122.391
 21
94.38339999999999
  0
LINE
  5
127
100
AcDbEntity
  8
View
  6
ByLayer
 62
  256
370
   -1
100
AcDbLine
 10
119.285
 20
94.38339999999999
 11
119.285
 21
81.68340000000001
  0
LINE
  5
128
100
AcDbEntity
  8
View
  6
ByLayer
 62
  256
370
   -1
100
AcDbLine
 10
122.391
 20
94.38339999999999
 11
122.391
 21
81.68340000000001
  0
LINE
  5
129
100
AcDbEntity
  8
View
  6
ByLayer
 62
  256
370
   -1
100
AcDbLine
 10
120.809
 20
94.38339999999999
 11
119.285
 21
94.38339999999999
  0
LINE
  5
12A
100
AcDbEntity
  8
View
  6
ByLayer
 62
  256
370
   -1
100
AcDbLine
 10
120.809
 20
81.68340000000001
 11
122.391
 21
81.68340000000001
  0
LINE
  5
12B
100
AcDbEntity
  8
View
  6
ByLayer
 62
  256
370
   -1
100
AcDbLine
 10
120.809
 20
81.68340000000001
 11
120.809
 21
94.38339999999999
  0
CIRCLE
  5
12C
100
AcDbEntity
  8
View
  6
ByLayer
 62
  256
370
   -1
100
AcDbCircle
 10
196.247
 20
96.7647
 40
1.524
  0
LINE
  5
12D
100
AcDbEntity
  8
View002
  6
ByLayer
 62
  256
370
   -1
100
AcDbLine
 10
38.6591
 20
123.426
 11
33.8032
 21
128.282
  0
SPLINE
  5
12E
100
AcDbEntity
  8
View002
  6
ByLayer
 62
  256
370
   -1
100
AcDbSpline
210
0
220
0
230
0
 70
    8
 71
    3
 72
   17
 73
   13
 74
    0
 42
1e-07
 43
1e-07
 40
0
 40
0
 40
0
 40
0
 40
0.243748
 40
0.243748
 40
0.243748
 40
0.5
 40
0.5
 40
0.5
 40
0.756252
 40
0.756252
 40
0.756252
 40
1
 40
1
 40
1
 40
1
 10
33.8032
 20
128.282
 30
0
 10
33.2305
 20
128.854
 30
0
 10
32.7644
 20
129.542
 30
0
 10
32.4456
 20
130.297
 30
0
 10
32.1094
 20
131.09
 30
0
 10
31.9366
 20
131.955
 30
0
 10
31.9435
 20
132.819
 30
0
 10
31.9492
 20
133.683
 30
0
 10
32.1348
 20
134.545
 30
0
 10
32.4826
 20
135.333
 30
0
 10
32.8124
 20
136.083
 30
0
 10
33.2885
 20
136.764
 30
0
 10
33.8696
 20
137.328
 30
0
  0
ARC
  5
12F
100
AcDbEntity
  8
View002
  6
ByLayer
 62
  256
370
   -1
100
AcDbCircle
 10
47.6394
 20
132.406
 40
12.7
100
AcDbArc
 50
-135
 51
-87.61409999999999
  0
ARC
  5
130
100
AcDbEntity
  8
View002
  6
ByLayer
 62
  256
370
   -1
100
AcDbCircle
 10
42.717
 20
128.217
 40
12.7
100
AcDbArc
 50
90
 51
134.159
  0
LINE
  5
131
100
AcDbEntity
  8
View002
  6
ByLayer
 62
  256
370
   -1
100
AcDbLine
 10
96.8948
 20
121.748
 11
48.1681
 21
119.717
  0
LINE
  5
132
100
AcDbEntity
  8
View002
  6
ByLayer
 62
  256
370
   -1
100
AcDbLine
 10
42.717
 20
140.917
 11
111.441
 21
140.917
  0
ARC
  5
133
100
AcDbEntity
  8
View002
  6
ByLayer
 62
  256
370
   -1
100
AcDbCircle
 10
90.55029999999999
 20
274.015
 40
152.4
100
AcDbArc
 50
-87.61409999999999
 51
-71.2413
  0
ARC
  5
134
100
AcDbEntity
  8
View002
  6
ByLayer
 62
  256
370
   -1
100
AcDbCircle
 10
111.441
 20
267.917
 40
127
100
AcDbArc
 50
-90
 51
-83.36750000000001
  0
LINE
  5
135
100
AcDbEntity
  8
View002
  6
ByLayer
 62
  256
370
   -1
100
AcDbLine
 10
158.629
 20
136.187
 11
139.559
 21
129.711
  0
LINE
  5
136
100
AcDbEntity
  8
View002
  6
ByLayer
 62
  256
370
   -1
100
AcDbLine
 10
126.11
 20
141.767
 11
151.469
 21
144.715
  0
ARC
  5
137
100
AcDbEntity
  8
View002
  6
ByLayer
 62
  256
370
   -1
100
AcDbCircle
 10
157.567
 20
139.314
 40
3.302
100
AcDbArc
 50
-71.2413
 51
0
  0
ARC
  5
138
100
AcDbEntity
  8
View002
  6
ByLayer
 62
  256
370
   -1
100
AcDbCircle
 10
154.403
 20
119.485
 40
25.4
100
AcDbArc
 50
90
 51
96.63249999999999
  0
LINE
  5
139
100
AcDbEntity
  8
View002
  6
ByLayer
 62
  256
370
   -1
100
AcDbLine
 10
160.869
 20
141.583
 11
160.869
 21
139.314
  0
LINE
  5
13A
100
AcDbEntity
  8
View002
  6
ByLayer
 62
  256
370
   -1
100
AcDbLine
 10
154.403
 20
144.885
 11
157.567
 21
144.885
  0
ARC
  5
13B
100
AcDbEntity
  8
View002
  6
ByLayer
 62
  256
370
   -1
100
AcDbCircle
 10
157.567
 20
141.583
 40
3.302
100
AcDbArc
 50
0
 51
90
  0
CIRCLE
  5
13C
100
AcDbEntity
  8
View002
  6
ByLayer
 62
  256
370
   -1
100
AcDbCircle
 10
36.2499
 20
132.185
 40
1.524
  0
CIRCLE
  5
13D
100
AcDbEntity
  8
View002
  6
ByLayer
 62
  256
370
   -1
100
AcDbCircle
 10
156.9
 20
140.917
 40
1.524
  0
LINE
  5
13E
100
AcDbEntity
  8
View003
  6
ByLayer
 62
  256
370
   -1
100
AcDbLine
 10
264.426
 20
130.205
 11
264.426
 21
127.03
  0
LINE
  5
13F
100
AcDbEntity
  8
View003
  6
ByLayer
 62
  256
370
   -1
100
AcDbLine
 10
264.426
 20
130.205
 11
188.226
 21
130.205
  0
LINE
  5
140
100
AcDbEntity
  8
View003
  6
ByLayer
 62
  256
370
   -1
100
AcDbLine
 10
264.426
 20
127.03
 11
188.226
 21
123.855
  0
ARC
  5
141
100
AcDbEntity
  8
View003
  6
ByLayer
 62
  256
370
   -1
100
AcDbCircle
 10
302.526
 20
145.286
 40
115.291
100
AcDbArc
 50
180
 51
-172.484
  0
LINE
  5
142
100
AcDbEntity
  8
View003
  6
ByLayer
 62
  256
370
   -1
100
AcDbLine
 10
188.226
 20
123.855
 11
175.526
 21
136.555
  0
LINE
  5
143
100
AcDbEntity
  8
View003
  6
ByLayer
 62
  256
370
   -1
100
AcDbLine
 10
181.876
 20
145.286
 11
187.235
 21
145.286
  0
LINE
  5
144
100
AcDbEntity
  8
View003
  6
ByLayer
 62
  256
370
   -1
100
AcDbLine
 10
175.526
 20
136.555
 11
181.876
 21
145.286
  0
CIRCLE
  5
145
100
AcDbEntity
  8
View003
  6
ByLayer
 62
  256
370
   -1
100
AcDbCircle
 10
181.876
 20
136.555
 40
1.524
  0
DIMENSION
  5
146
100
AcDbEntity
  8
Dimension
  6
ByLayer
 62
  256
370
   -1
100
AcDbDimension
  2
*D1
 10
158.733
 20
203.74
 30
0
 11
158.733
 21
198.74
 31
0
 70
   32
  1
 in
 71
    5
 72
    0
  3
STANDARD
 53
0
210
0
220
0
230
1
100
AcDbAlignedDimension
 13
230.171
 23
180.222
 33
0
 14
87.2958
 24
180.222
 34
0
100
AcDbRotatedDimension
  0
DIMENSION
  5
147
100
AcDbEntity
  8
Dimension001
  6
ByLayer
 62
  256
370
   -1
100
AcDbDimension
  2
*D2
 10
240.324
 20
181.038
 30
0
 11
235.324
 21
181.038
 31
0
 70
   32
  1
 in
 71
    5
 72
    0
  3
STANDARD
 53
0
210
0
220
0
230
1
100
AcDbAlignedDimension
 13
88.0895
 23
188.16
 33
0
 14
88.0895
 24
169.11
 34
0
 50
90
100
AcDbRotatedDimension
  0
DIMENSION
  5
148
100
AcDbEntity
  8
Dimension002
  6
ByLayer
 62
  256
370
   -1
100
AcDbDimension
  2
*D3
 10
73.1362
 20
176.414
 30
0
 11
68.1386
 21
176.258
 31
0
 70
   32
  1
 in
 71
    5
 72
    0
  3
STANDARD
 53
0
210
0
220
0
230
1
100
AcDbAlignedDimension
 13
88.0895
 23
188.16
 33
0
 14
87.2958
 24
162.76
 34
0
 50
90
100
AcDbRotatedDimension
  0
ENDSEC
  0
SECTION
  2
OBJECTS
  0
DICTIONARY
  5
C
330
0
100
AcDbDictionary
281
    1
  3
ACAD_GROUP
350
D
  0
DICTIONARY
  5
D
330
C
100
AcDbDictionary
281
    1
  0
ENDSEC
  0
EOF
